<?xml version="1.0" encoding="iso-8859-1"?>
<!-- Generator: Adobe Illustrator 19.0.0, SVG Export Plug-In . SVG Version: 6.00 Build 0)  -->
<svg xmlns="http://www.w3.org/2000/svg" xmlns:xlink="http://www.w3.org/1999/xlink" version="1.1" id="Layer_1" x="0px" y="0px" viewBox="0 0 396.886 396.886" style="enable-background:new 0 0 396.886 396.886;" xml:space="preserve" width="512" height="512">
<g>
	<polygon style="fill:#E6E6E6;" points="366.639,15.423 366.639,126.466 30.243,280.664 30.243,15.423  "/>
	<path style="fill:#CCCCCC;" d="M366.639,103.114v23.352L30.243,280.664V39.245c1.901-0.31,3.846-0.47,5.832-0.47h89.881   c14.827,0,28.158,9.08,33.574,22.881l7.114,18.096c5.427,13.812,18.747,22.892,33.574,22.892h160.587   C362.793,102.644,364.748,102.804,366.639,103.114z"/>
	<path style="fill:#F95428;" d="M396.886,348.737V161.531c0-19.924-16.152-36.077-36.077-36.077H200.221   c-14.833,0-28.155-9.079-33.578-22.885l-7.109-18.097c-5.424-13.806-18.745-22.885-33.578-22.885H36.077   C16.152,61.588,0,77.74,0,97.665v251.072c0,18.074,14.652,32.726,32.726,32.726H364.16   C382.234,381.463,396.886,366.811,396.886,348.737z"/>
	<path style="fill:#E54728;" d="M38.454,348.737V97.665c0-19.925,16.152-36.077,36.077-36.077H36.077   C16.152,61.588,0,77.74,0,97.665v251.072c0,18.074,14.652,32.726,32.726,32.726H71.18   C53.106,381.463,38.454,366.811,38.454,348.737z"/>
	<g>
		<path style="fill:#4D4D4D;" d="M277.148,190.873c0-11.744-9.555-21.299-21.299-21.299h-8.594c-2.95,0-5.341,2.392-5.341,5.341    v49.11c0,2.95,2.391,5.341,5.341,5.341s5.341-2.392,5.341-5.341v-11.854h3.253C267.593,212.171,277.148,202.617,277.148,190.873z     M255.849,201.489h-3.253v-21.233h3.253c5.854,0,10.617,4.763,10.617,10.617C266.466,196.727,261.703,201.489,255.849,201.489z"/>
		<path style="fill:#4D4D4D;" d="M158.373,180.256c2.95,0,5.341-2.392,5.341-5.341c0-2.95-2.391-5.341-5.341-5.341h-33.295    c-2.95,0-5.341,2.392-5.341,5.341c0,2.95,2.391,5.341,5.341,5.341h11.306v43.769c0,2.95,2.391,5.341,5.341,5.341    c2.95,0,5.341-2.392,5.341-5.341v-43.769H158.373z"/>
		<path style="fill:#4D4D4D;" d="M220.133,209.794v-20.648c0-10.792-8.781-19.572-19.572-19.572h-2.664    c-10.792,0-19.572,8.78-19.572,19.572v20.648c0,10.792,8.781,19.572,19.572,19.572h2.664    C211.353,229.367,220.133,220.587,220.133,209.794z M209.451,209.794c0,4.902-3.988,8.89-8.89,8.89h-2.664    c-4.902,0-8.89-3.988-8.89-8.89v-20.648c0-4.902,3.988-8.89,8.89-8.89h2.664c4.902,0,8.89,3.988,8.89,8.89V209.794z"/>
		<path style="fill:#4D4D4D;" d="M123.175,273.195c2.95,0,5.341-2.392,5.341-5.341s-2.391-5.341-5.341-5.341h-21.047    c-2.95,0-5.341,2.392-5.341,5.341v49.11c0,2.95,2.391,5.341,5.341,5.341h21.047c2.95,0,5.341-2.392,5.341-5.341    c0-2.95-2.391-5.341-5.341-5.341h-15.706V298.1h11.497c2.95,0,5.341-2.392,5.341-5.341s-2.391-5.341-5.341-5.341h-11.497v-14.223    H123.175z"/>
		<path style="fill:#4D4D4D;" d="M287.372,273.195c2.95,0,5.341-2.392,5.341-5.341s-2.391-5.341-5.341-5.341h-21.047    c-2.95,0-5.341,2.392-5.341,5.341v49.11c0,2.95,2.391,5.341,5.341,5.341h21.047c2.95,0,5.341-2.392,5.341-5.341    c0-2.95-2.391-5.341-5.341-5.341h-15.706V298.1h11.497c2.95,0,5.341-2.392,5.341-5.341s-2.391-5.341-5.341-5.341h-11.497v-14.223    H287.372z"/>
		<path style="fill:#4D4D4D;" d="M348.228,262.513h-33.294c-2.95,0-5.341,2.392-5.341,5.341s2.391,5.341,5.341,5.341h11.306v43.769    c0,2.95,2.391,5.341,5.341,5.341c2.95,0,5.341-2.392,5.341-5.341v-43.769h11.306c2.95,0,5.341-2.392,5.341-5.341    S351.178,262.513,348.228,262.513z"/>
		<path style="fill:#4D4D4D;" d="M167.996,262.513c-11.527,0-20.905,9.377-20.905,20.904v17.984    c0,11.527,9.377,20.904,20.905,20.904c5.584,0,10.834-2.175,14.781-6.122c2.086-2.086,2.086-5.468,0-7.554    c-2.084-2.085-5.468-2.085-7.553,0c-1.931,1.931-4.498,2.994-7.228,2.994c-5.636,0-10.222-4.585-10.222-10.222v-17.984    c0-5.636,4.586-10.222,10.222-10.222c4.119,0,7.816,2.451,9.421,6.245c1.15,2.718,4.284,3.989,7,2.839    c2.716-1.149,3.987-4.283,2.837-7C183.974,267.523,176.414,262.513,167.996,262.513z"/>
		<path style="fill:#4D4D4D;" d="M232.173,298.663c3.744-3.84,6.063-9.078,6.063-14.852c0-11.744-9.555-21.298-21.299-21.298h-8.594    c-2.95,0-5.341,2.392-5.341,5.341v49.11c0,2.95,2.391,5.341,5.341,5.341c2.95,0,5.341-2.392,5.341-5.341V305.11h3.253    c2.116,0,4.157-0.32,6.088-0.898l8.151,15.267c0.962,1.801,2.808,2.827,4.716,2.827c0.849,0,1.711-0.203,2.511-0.631    c2.603-1.389,3.585-4.625,2.197-7.227L232.173,298.663z M213.684,294.427v-21.233h3.253c5.854,0,10.617,4.762,10.617,10.616    c0,5.854-4.762,10.617-10.617,10.617H213.684z"/>
		<path style="fill:#4D4D4D;" d="M60.934,273.195h12.86c2.95,0,5.341-2.392,5.341-5.341s-2.391-5.341-5.341-5.341h-12.86    c-9.714,0-17.616,7.903-17.616,17.617s7.902,17.617,17.616,17.617h0.584c3.824,0,6.935,3.111,6.935,6.941    c0,3.824-3.111,6.935-6.935,6.935H48.659c-2.95,0-5.341,2.392-5.341,5.341c0,2.95,2.391,5.341,5.341,5.341h12.859    c9.714,0,17.617-7.903,17.617-17.623c0-9.714-7.903-17.617-17.617-17.617h-0.584c-3.823,0-6.934-3.111-6.934-6.935    S57.111,273.195,60.934,273.195z"/>
	</g>
</g>















</svg>
